# Blender 3.1.0
# www.blender.org
mtllib Nut_top.mtl
o stutz_top
v 0.349836 -0.394884 1.025222
v 0.377150 -0.260328 1.025222
v 0.212969 -0.405779 1.025222
v 0.493276 -0.187075 1.025222
v 0.454930 -0.055238 1.025222
v 0.523713 0.063590 1.025222
v 0.428491 0.162505 1.025222
v 0.434173 0.299688 1.025222
v 0.303890 0.343021 1.025222
v 0.245169 0.467130 1.025222
v 0.109671 0.444955 1.025222
v 0.000000 0.527559 1.025222
v -0.109671 0.444955 1.025222
v -0.245169 0.467130 1.025222
v -0.303890 0.343021 1.025222
v -0.434173 0.299688 1.025222
v -0.428491 0.162505 1.025222
v -0.523713 0.063590 1.025222
v -0.454930 -0.055238 1.025222
v -0.493276 -0.187075 1.025222
v -0.377150 -0.260328 1.025222
v -0.349836 -0.394884 1.025222
v -0.212969 -0.405779 1.025222
v -0.126253 -0.512229 1.025222
v -0.000000 -0.458271 1.025222
v 0.000000 -0.527559 1.025222
v 0.126253 -0.512229 1.025222
v 0.365896 -0.252560 0.947670
v 0.206614 -0.393671 0.947670
v 0.441355 -0.053590 0.947670
v 0.415705 0.157656 0.947670
v 0.294822 0.332786 0.947670
v 0.106399 0.431678 0.947670
v -0.106399 0.431678 0.947670
v -0.294822 0.332786 0.947670
v -0.415705 0.157656 0.947670
v -0.441355 -0.053590 0.947670
v -0.365896 -0.252560 0.947670
v -0.206614 -0.393671 0.947670
v 0.000000 -0.444597 0.947670
v 0.356410 -0.246012 0.939600
v 0.201258 -0.383465 0.939600
v 0.429913 -0.052201 0.939600
v 0.404928 0.153569 0.939600
v 0.287179 0.324158 0.939600
v 0.103641 0.420486 0.939600
v -0.103641 0.420486 0.939600
v -0.287179 0.324158 0.939600
v -0.404928 0.153569 0.939600
v -0.429913 -0.052201 0.939600
v -0.356410 -0.246012 0.939600
v -0.201258 -0.383465 0.939600
v 0.000000 -0.433070 0.939600
v 0.201258 -0.383465 0.670891
v -0.000000 -0.433070 0.670891
v 0.356410 -0.246012 0.670891
v 0.429913 -0.052201 0.670891
v 0.404928 0.153569 0.670891
v 0.287179 0.324158 0.670891
v 0.103641 0.420486 0.670891
v -0.103641 0.420486 0.670891
v -0.287179 0.324158 0.670891
v -0.404928 0.153569 0.670891
v -0.429913 -0.052201 0.670891
v -0.356410 -0.246012 0.670891
v -0.201258 -0.383465 0.670891
v 0.332110 -0.229239 0.560694
v 0.187536 -0.357320 0.560694
v 0.400601 -0.048642 0.560694
v 0.377320 0.143098 0.560694
v 0.267599 0.302056 0.560694
v 0.096574 0.391817 0.560694
v -0.096574 0.391817 0.560694
v -0.267599 0.302056 0.560694
v -0.377320 0.143098 0.560694
v -0.400601 -0.048642 0.560694
v -0.332110 -0.229239 0.560694
v -0.187536 -0.357320 0.560694
v 0.000000 -0.403543 0.560694
v 0.187536 -0.357320 0.403162
v -0.000000 -0.403543 0.403162
v 0.332110 -0.229239 0.403162
v 0.400601 -0.048642 0.403162
v 0.377320 0.143098 0.403162
v 0.267599 0.302056 0.403162
v 0.096574 0.391817 0.403162
v -0.096574 0.391817 0.403162
v -0.267599 0.302056 0.403162
v -0.377320 0.143098 0.403162
v -0.400601 -0.048642 0.403162
v -0.332110 -0.229239 0.403162
v -0.187536 -0.357320 0.403162
v 0.325629 -0.224766 0.395288
v 0.183877 -0.350348 0.395288
v 0.392784 -0.047693 0.395288
v 0.369957 0.140306 0.395288
v 0.262377 0.296163 0.395288
v 0.094690 0.384172 0.395288
v -0.094690 0.384172 0.395288
v -0.262377 0.296163 0.395288
v -0.369957 0.140306 0.395288
v -0.392784 -0.047693 0.395288
v -0.325629 -0.224766 0.395288
v -0.183877 -0.350348 0.395288
v 0.000000 -0.395669 0.395288
v 0.325064 -0.039470 0.395288
v 0.269487 -0.186014 0.395288
v 0.306173 0.116116 0.395288
v 0.217141 0.245101 0.395288
v 0.078364 0.317937 0.395288
v -0.078364 0.317937 0.395288
v -0.217141 0.245101 0.395288
v -0.306173 0.116116 0.395288
v -0.325064 -0.039470 0.395288
v -0.269487 -0.186014 0.395288
v -0.152174 -0.289944 0.395288
v -0.000000 -0.327452 0.395288
v 0.152174 -0.289944 0.395288
v 0.148939 -0.283779 0.394016
v 0.146122 -0.278411 0.390363
v 0.000000 -0.314427 0.390363
v 0.263758 -0.182059 0.394016
v 0.258768 -0.178615 0.390363
v 0.318153 -0.038631 0.394016
v 0.312135 -0.037900 0.390363
v 0.299663 0.113647 0.394016
v 0.293994 0.111497 0.390363
v 0.212524 0.239890 0.394016
v 0.208504 0.235352 0.390363
v 0.076698 0.311177 0.394016
v 0.075247 0.305290 0.390363
v -0.076698 0.311177 0.394016
v -0.075247 0.305290 0.390363
v -0.212524 0.239890 0.394016
v -0.208504 0.235352 0.390363
v -0.299663 0.113647 0.394016
v -0.293994 0.111497 0.390363
v -0.318153 -0.038631 0.394016
v -0.312135 -0.037900 0.390363
v -0.263758 -0.182059 0.394016
v -0.258768 -0.178615 0.390363
v -0.148939 -0.283779 0.394016
v -0.146122 -0.278411 0.390363
v 0.000000 -0.320489 0.394016
v 0.140109 -0.266955 0.373882
v 0.137221 -0.261454 0.353871
v 0.000000 -0.295276 0.353871
v 0.248120 -0.171265 0.373882
v 0.243007 -0.167736 0.353871
v 0.299291 -0.036340 0.373882
v 0.293123 -0.035592 0.353871
v 0.281897 0.106909 0.373882
v 0.276087 0.104706 0.353871
v 0.199924 0.225668 0.373882
v 0.195804 0.221017 0.353871
v 0.072151 0.292728 0.373882
v 0.070664 0.286695 0.353871
v -0.072151 0.292728 0.373882
v -0.070664 0.286695 0.353871
v -0.199924 0.225668 0.373882
v -0.195804 0.221017 0.353871
v -0.281897 0.106909 0.373882
v -0.276087 0.104706 0.353871
v -0.299291 -0.036340 0.373882
v -0.293123 -0.035592 0.353871
v -0.248120 -0.171265 0.373882
v -0.243007 -0.167736 0.353871
v -0.140109 -0.266955 0.373882
v -0.137221 -0.261454 0.353871
v 0.000000 -0.301489 0.373882
v 0.137221 -0.261454 0.143324
v -0.000000 -0.295276 0.143324
v 0.243007 -0.167736 0.143324
v 0.293123 -0.035592 0.143324
v 0.276087 0.104706 0.143324
v 0.195804 0.221017 0.143324
v 0.070664 0.286695 0.143324
v -0.070664 0.286695 0.143324
v -0.195804 0.221017 0.143324
v -0.276087 0.104706 0.143324
v -0.293123 -0.035592 0.143324
v -0.243007 -0.167736 0.143324
v -0.137221 -0.261454 0.143324
v 0.236527 -0.163263 0.135450
v 0.133562 -0.254481 0.135450
v 0.285306 -0.034642 0.135450
v 0.268725 0.101914 0.135450
v 0.190582 0.215123 0.135450
v 0.068780 0.279050 0.135450
v -0.068780 0.279050 0.135450
v -0.190582 0.215123 0.135450
v -0.268725 0.101914 0.135450
v -0.285306 -0.034642 0.135450
v -0.236527 -0.163263 0.135450
v -0.133562 -0.254481 0.135450
v 0.000000 -0.287402 0.135450
v 0.191421 0.072596 0.135450
v 0.203232 -0.024677 0.135450
v 0.135757 0.153238 0.135450
v 0.048994 0.198775 0.135450
v -0.048994 0.198775 0.135450
v -0.135757 0.153238 0.135450
v -0.191421 0.072596 0.135450
v -0.203232 -0.024677 0.135450
v -0.168485 -0.116297 0.135450
v -0.095140 -0.181274 0.135450
v -0.000000 -0.204724 0.135450
v 0.095140 -0.181274 0.135450
v 0.168485 -0.116297 0.135450
v 0.162005 -0.111824 0.127576
v 0.091481 -0.174302 0.127576
v 0.195415 -0.023728 0.127576
v 0.184058 0.069804 0.127576
v 0.130536 0.147345 0.127576
v 0.047109 0.191130 0.127576
v -0.047109 0.191130 0.127576
v -0.130536 0.147345 0.127576
v -0.184058 0.069804 0.127576
v -0.195415 -0.023728 0.127576
v -0.162005 -0.111824 0.127576
v -0.091481 -0.174302 0.127576
v 0.000000 -0.196850 0.127576
v 0.091481 -0.174302 0.001600
v 0.000000 -0.196850 0.001600
v 0.162005 -0.111824 0.001600
v 0.195415 -0.023728 0.001600
v 0.184058 0.069804 0.001600
v 0.130536 0.147345 0.001600
v 0.047109 0.191130 0.001600
v -0.047109 0.191130 0.001600
v -0.130536 0.147345 0.001600
v -0.184058 0.069804 0.001600
v -0.195415 -0.023728 0.001600
v -0.162005 -0.111824 0.001600
v -0.091481 -0.174302 0.001600
v -0.531496 0.306859 0.001600
v -0.000000 0.613719 0.001600
v 0.000000 -0.613719 0.001600
v 0.531496 -0.306859 0.001600
v -0.531496 -0.306859 0.001600
v 0.531496 0.306859 0.001600
v -0.531496 -0.306859 0.975477
v -0.531496 0.064535 1.020695
v -0.531496 0.306859 0.975477
v -0.247199 0.470998 1.022699
v -0.000000 0.613719 0.975477
v 0.247199 0.470998 1.022699
v 0.531496 0.306859 0.975477
v 0.531496 0.064535 1.020695
v 0.531496 -0.306859 0.975477
v 0.359717 -0.406036 1.016619
v 0.121959 -0.543306 1.008324
v 0.000000 -0.613719 0.975477
v -0.121959 -0.543306 1.008324
v -0.359717 -0.406036 1.016619
vn -0.0000 -0.0000 1.0000
vn -0.6536 0.7378 0.1687
vn -0.9216 0.3495 0.1687
vn -0.9785 -0.1188 0.1687
vn -0.8112 -0.5599 0.1687
vn -0.4581 -0.8728 0.1687
vn -0.0000 -0.9857 0.1687
vn 0.4581 -0.8728 0.1687
vn 0.8112 -0.5599 0.1687
vn 0.9785 -0.1188 0.1687
vn 0.9216 0.3495 0.1687
vn 0.6536 0.7378 0.1687
vn 0.2359 0.9570 0.1687
vn -0.2359 0.9570 0.1687
vn -0.3879 0.4378 0.8111
vn -0.5469 0.2074 0.8111
vn -0.5807 -0.0705 0.8111
vn -0.4814 -0.3323 0.8111
vn -0.2718 -0.5179 0.8111
vn -0.0000 -0.5849 0.8111
vn 0.2718 -0.5179 0.8111
vn 0.4814 -0.3323 0.8111
vn 0.5807 -0.0705 0.8111
vn 0.5469 0.2074 0.8111
vn 0.3879 0.4378 0.8111
vn 0.1400 0.5679 0.8111
vn -0.1400 0.5679 0.8111
vn -0.2393 0.9709 -0.0000
vn -0.6631 0.7485 -0.0000
vn -0.9350 0.3546 -0.0000
vn -0.9927 -0.1205 -0.0000
vn -0.8230 -0.5681 -0.0000
vn -0.4647 -0.8855 -0.0000
vn -0.0000 -1.0000 -0.0000
vn 0.4647 -0.8855 -0.0000
vn 0.8230 -0.5681 -0.0000
vn 0.9927 -0.1205 -0.0000
vn 0.9350 0.3546 -0.0000
vn 0.6631 0.7485 -0.0000
vn 0.2393 0.9709 -0.0000
vn -0.6418 0.7244 0.2518
vn -0.9049 0.3432 0.2518
vn -0.9607 -0.1167 0.2518
vn -0.7965 -0.5498 0.2518
vn -0.4498 -0.8569 0.2518
vn -0.0000 -0.9678 0.2518
vn 0.4498 -0.8569 0.2518
vn 0.7965 -0.5498 0.2518
vn 0.9607 -0.1167 0.2518
vn 0.9049 0.3432 0.2518
vn 0.6418 0.7244 0.2518
vn 0.2316 0.9397 0.2518
vn -0.2316 0.9397 0.2518
vn -0.4758 0.5370 0.6966
vn -0.6708 0.2544 0.6966
vn -0.7122 -0.0865 0.6966
vn -0.5905 -0.4076 0.6966
vn -0.3334 -0.6353 0.6966
vn -0.0000 -0.7175 0.6966
vn 0.3334 -0.6353 0.6966
vn 0.5905 -0.4076 0.6966
vn 0.7122 -0.0865 0.6966
vn 0.6708 0.2544 0.6966
vn 0.4758 0.5370 0.6966
vn 0.1717 0.6966 0.6966
vn -0.1717 0.6966 0.6966
vn -0.1262 0.5119 0.8497
vn -0.3496 0.3947 0.8497
vn -0.4930 0.1870 0.8497
vn -0.5234 -0.0636 0.8497
vn -0.4339 -0.2995 0.8497
vn -0.2450 -0.4669 0.8497
vn -0.0000 -0.5273 0.8497
vn 0.2450 -0.4669 0.8497
vn 0.4339 -0.2995 0.8497
vn 0.5234 -0.0636 0.8497
vn 0.4930 0.1870 0.8497
vn 0.3496 0.3947 0.8497
vn 0.1262 0.5119 0.8497
vn -0.0443 0.1796 0.9827
vn -0.1227 0.1385 0.9827
vn -0.1730 0.0656 0.9827
vn -0.1836 -0.0223 0.9827
vn -0.1522 -0.1051 0.9827
vn -0.0860 -0.1638 0.9827
vn -0.0000 -0.1850 0.9827
vn 0.0860 -0.1638 0.9827
vn 0.1522 -0.1051 0.9827
vn 0.1836 -0.0223 0.9827
vn 0.1730 0.0656 0.9827
vn 0.1227 0.1385 0.9827
vn 0.0443 0.1796 0.9827
vn -0.2291 0.9296 0.2886
vn -0.6349 0.7167 0.2886
vn -0.8952 0.3395 0.2886
vn -0.9505 -0.1154 0.2886
vn -0.7880 -0.5439 0.2886
vn -0.4449 -0.8478 0.2886
vn -0.0000 -0.9574 0.2886
vn 0.4449 -0.8478 0.2886
vn 0.7880 -0.5439 0.2886
vn 0.9505 -0.1154 0.2886
vn 0.8952 0.3395 0.2886
vn 0.6349 0.7166 0.2886
vn 0.6349 0.7167 0.2886
vn 0.2291 0.9296 0.2886
vn -0.1903 0.7722 0.6062
vn -0.5274 0.5953 0.6062
vn -0.7436 0.2820 0.6062
vn -0.7895 -0.0959 0.6062
vn -0.6545 -0.4518 0.6062
vn -0.3696 -0.7042 0.6062
vn -0.0000 -0.7953 0.6062
vn 0.3696 -0.7042 0.6062
vn 0.6545 -0.4518 0.6062
vn 0.7895 -0.0959 0.6062
vn 0.7436 0.2820 0.6062
vn 0.5274 0.5953 0.6062
vn 0.1903 0.7722 0.6062
vn -0.0000 -0.7174 0.6966
vn -0.0000 -0.0000 -1.0000
vn -0.3680 -0.2540 0.8944
vn -0.6836 -0.0830 0.7251
vn -0.5094 -0.1040 0.8542
vn -0.4779 0.1812 0.8595
vn -0.4392 0.1648 0.8831
vn -0.3845 0.4340 0.8148
vn -0.3569 0.3715 0.8571
vn -0.1223 0.4962 0.8595
vn 0.1223 0.4962 0.8595
vn 0.3389 0.3826 0.8595
vn 0.3850 0.4322 0.8155
vn 0.4390 0.1665 0.8829
vn 0.4816 0.1608 0.8615
vn 0.5074 -0.0616 0.8595
vn 0.6743 -0.0892 0.7330
vn 0.3680 -0.2540 0.8944
vn 0.3911 -0.3193 0.8632
vn 0.2375 -0.4526 0.8595
vn 0.2531 -0.4889 0.8348
vn 0.0424 -0.4818 0.8753
vn 0.0606 -0.4991 0.8644
vn -0.0553 -0.4992 0.8647
vn -0.3911 -0.3193 0.8632
vn -0.2332 -0.4559 0.8589
vn -0.2566 -0.4888 0.8338
vn -0.0587 -0.4831 0.8736
vn -0.5000 -0.8660 -0.0000
vn 0.5000 -0.8660 -0.0000
vn 1.0000 -0.0000 -0.0000
vn 0.5000 0.8660 -0.0000
vn -0.5000 0.8660 -0.0000
vn -1.0000 -0.0000 -0.0000
s 0
f 1//1 2//1 3//1
f 2//1 1//1 4//1
f 4//1 5//1 2//1
f 5//1 4//1 6//1
f 6//1 7//1 5//1
f 7//1 6//1 8//1
f 8//1 9//1 7//1
f 9//1 8//1 10//1
f 10//1 11//1 9//1
f 11//1 10//1 12//1
f 12//1 13//1 11//1
f 13//1 12//1 14//1
f 14//1 15//1 13//1
f 15//1 14//1 16//1
f 16//1 17//1 15//1
f 17//1 16//1 18//1
f 18//1 19//1 17//1
f 19//1 18//1 20//1
f 20//1 21//1 19//1
f 21//1 20//1 22//1
f 22//1 23//1 21//1
f 23//1 22//1 24//1
f 25//1 23//1 24//1
f 24//1 26//1 25//1
f 3//1 25//1 26//1
f 26//1 27//1 3//1
f 3//1 27//1 1//1
f 28//2 29//2 3//2
f 3//2 2//2 28//2
f 30//3 28//3 2//3
f 2//3 5//3 30//3
f 31//4 30//4 5//4
f 5//4 7//4 31//4
f 32//5 31//5 7//5
f 7//5 9//5 32//5
f 33//6 32//6 9//6
f 9//6 11//6 33//6
f 34//7 33//7 11//7
f 11//7 13//7 34//7
f 35//8 34//8 13//8
f 13//8 15//8 35//8
f 36//9 35//9 15//9
f 15//9 17//9 36//9
f 37//10 36//10 17//10
f 17//10 19//10 37//10
f 38//11 37//11 19//11
f 19//11 21//11 38//11
f 39//12 38//12 21//12
f 21//12 23//12 39//12
f 40//13 39//13 23//13
f 23//13 25//13 40//13
f 29//14 40//14 25//14
f 25//14 3//14 29//14
f 41//15 42//15 29//15
f 29//15 28//15 41//15
f 43//16 41//16 28//16
f 28//16 30//16 43//16
f 44//17 43//17 30//17
f 30//17 31//17 44//17
f 45//18 44//18 31//18
f 31//18 32//18 45//18
f 46//19 45//19 32//19
f 32//19 33//19 46//19
f 47//20 46//20 33//20
f 33//20 34//20 47//20
f 48//21 47//21 34//21
f 34//21 35//21 48//21
f 49//22 48//22 35//22
f 35//22 36//22 49//22
f 50//23 49//23 36//23
f 36//23 37//23 50//23
f 51//24 50//24 37//24
f 37//24 38//24 51//24
f 52//25 51//25 38//25
f 38//25 39//25 52//25
f 53//26 52//26 39//26
f 39//26 40//26 53//26
f 42//27 53//27 40//27
f 40//27 29//27 42//27
f 54//28 55//28 53//28
f 53//28 42//28 54//28
f 56//29 54//29 42//29
f 42//29 41//29 56//29
f 57//30 56//30 41//30
f 41//30 43//30 57//30
f 58//31 57//31 43//31
f 43//31 44//31 58//31
f 59//32 58//32 44//32
f 44//32 45//32 59//32
f 60//33 59//33 45//33
f 45//33 46//33 60//33
f 61//34 60//34 46//34
f 46//34 47//34 61//34
f 62//35 61//35 47//35
f 47//35 48//35 62//35
f 63//36 62//36 48//36
f 48//36 49//36 63//36
f 64//37 63//37 49//37
f 49//37 50//37 64//37
f 65//38 64//38 50//38
f 50//38 51//38 65//38
f 66//39 65//39 51//39
f 51//39 52//39 66//39
f 55//40 66//40 52//40
f 52//40 53//40 55//40
f 67//41 68//41 54//41
f 54//41 56//41 67//41
f 69//42 67//42 56//42
f 56//42 57//42 69//42
f 70//43 69//43 57//43
f 57//43 58//43 70//43
f 71//44 70//44 58//44
f 58//44 59//44 71//44
f 72//45 71//45 59//45
f 59//45 60//45 72//45
f 73//46 72//46 60//46
f 60//46 61//46 73//46
f 74//47 73//47 61//47
f 61//47 62//47 74//47
f 75//48 74//48 62//48
f 62//48 63//48 75//48
f 76//49 75//49 63//49
f 63//49 64//49 76//49
f 77//50 76//50 64//50
f 64//50 65//50 77//50
f 78//51 77//51 65//51
f 65//51 66//51 78//51
f 79//52 78//52 66//52
f 66//52 55//52 79//52
f 68//53 79//53 55//53
f 55//53 54//53 68//53
f 80//28 81//28 79//28
f 79//28 68//28 80//28
f 82//29 80//29 68//29
f 68//29 67//29 82//29
f 83//30 82//30 67//30
f 67//30 69//30 83//30
f 84//31 83//31 69//31
f 69//31 70//31 84//31
f 85//32 84//32 70//32
f 70//32 71//32 85//32
f 86//33 85//33 71//33
f 71//33 72//33 86//33
f 87//34 86//34 72//34
f 72//34 73//34 87//34
f 88//35 87//35 73//35
f 73//35 74//35 88//35
f 89//36 88//36 74//36
f 74//36 75//36 89//36
f 90//37 89//37 75//37
f 75//37 76//37 90//37
f 91//38 90//38 76//38
f 76//38 77//38 91//38
f 92//39 91//39 77//39
f 77//39 78//39 92//39
f 81//40 92//40 78//40
f 78//40 79//40 81//40
f 93//54 94//54 80//54
f 80//54 82//54 93//54
f 95//55 93//55 82//55
f 82//55 83//55 95//55
f 96//56 95//56 83//56
f 83//56 84//56 96//56
f 97//57 96//57 84//57
f 84//57 85//57 97//57
f 98//58 97//58 85//58
f 85//58 86//58 98//58
f 99//59 98//59 86//59
f 86//59 87//59 99//59
f 100//60 99//60 87//60
f 87//60 88//60 100//60
f 101//61 100//61 88//61
f 88//61 89//61 101//61
f 102//62 101//62 89//62
f 89//62 90//62 102//62
f 103//63 102//63 90//63
f 90//63 91//63 103//63
f 104//64 103//64 91//64
f 91//64 92//64 104//64
f 105//65 104//65 92//65
f 92//65 81//65 105//65
f 94//66 105//66 81//66
f 81//66 80//66 94//66
f 106//1 107//1 93//1
f 93//1 95//1 106//1
f 108//1 106//1 95//1
f 95//1 96//1 108//1
f 109//1 108//1 96//1
f 96//1 97//1 109//1
f 110//1 109//1 97//1
f 97//1 98//1 110//1
f 111//1 110//1 98//1
f 98//1 99//1 111//1
f 112//1 111//1 99//1
f 99//1 100//1 112//1
f 113//1 112//1 100//1
f 100//1 101//1 113//1
f 114//1 113//1 101//1
f 101//1 102//1 114//1
f 115//1 114//1 102//1
f 102//1 103//1 115//1
f 116//1 115//1 103//1
f 103//1 104//1 116//1
f 117//1 116//1 104//1
f 104//1 105//1 117//1
f 118//1 117//1 105//1
f 105//1 94//1 118//1
f 107//1 118//1 94//1
f 94//1 93//1 107//1
f 119//67 120//67 121//67
f 120//68 119//68 122//68
f 122//68 123//68 120//68
f 123//69 122//69 124//69
f 124//69 125//69 123//69
f 125//70 124//70 126//70
f 126//70 127//70 125//70
f 127//71 126//71 128//71
f 128//71 129//71 127//71
f 129//72 128//72 130//72
f 130//72 131//72 129//72
f 131//73 130//73 132//73
f 132//73 133//73 131//73
f 133//74 132//74 134//74
f 134//74 135//74 133//74
f 135//75 134//75 136//75
f 136//75 137//75 135//75
f 137//76 136//76 138//76
f 138//76 139//76 137//76
f 139//77 138//77 140//77
f 140//77 141//77 139//77
f 141//78 140//78 142//78
f 142//78 143//78 141//78
f 143//79 142//79 144//79
f 144//79 121//79 143//79
f 121//67 144//67 119//67
f 118//80 119//80 144//80
f 119//81 118//81 107//81
f 107//81 122//81 119//81
f 122//82 107//82 106//82
f 106//82 124//82 122//82
f 124//83 106//83 108//83
f 108//83 126//83 124//83
f 126//84 108//84 109//84
f 109//84 128//84 126//84
f 128//85 109//85 110//85
f 110//85 130//85 128//85
f 130//86 110//86 111//86
f 111//86 132//86 130//86
f 132//87 111//87 112//87
f 112//87 134//87 132//87
f 134//88 112//88 113//88
f 113//88 136//88 134//88
f 136//89 113//89 114//89
f 114//89 138//89 136//89
f 138//90 114//90 115//90
f 115//90 140//90 138//90
f 140//91 115//91 116//91
f 116//91 142//91 140//91
f 142//92 116//92 117//92
f 117//92 144//92 142//92
f 144//80 117//80 118//80
f 145//93 146//93 147//93
f 146//94 145//94 148//94
f 148//94 149//94 146//94
f 149//95 148//95 150//95
f 150//95 151//95 149//95
f 151//96 150//96 152//96
f 152//96 153//96 151//96
f 153//97 152//97 154//97
f 154//97 155//97 153//97
f 155//98 154//98 156//98
f 156//98 157//98 155//98
f 157//99 156//99 158//99
f 158//99 159//99 157//99
f 159//100 158//100 160//100
f 160//100 161//100 159//100
f 161//101 160//101 162//101
f 162//101 163//101 161//101
f 163//102 162//102 164//102
f 164//102 165//102 163//102
f 165//103 164//103 166//103
f 166//103 167//103 165//103
f 167//104 166//104 168//104
f 168//105 169//105 167//105
f 169//106 168//106 170//106
f 170//106 147//106 169//106
f 147//93 170//93 145//93
f 120//107 145//107 170//107
f 145//108 120//108 123//108
f 123//108 148//108 145//108
f 148//109 123//109 125//109
f 125//109 150//109 148//109
f 150//110 125//110 127//110
f 127//110 152//110 150//110
f 152//111 127//111 129//111
f 129//111 154//111 152//111
f 154//112 129//112 131//112
f 131//112 156//112 154//112
f 156//113 131//113 133//113
f 133//113 158//113 156//113
f 158//114 133//114 135//114
f 135//114 160//114 158//114
f 160//115 135//115 137//115
f 137//115 162//115 160//115
f 162//116 137//116 139//116
f 139//116 164//116 162//116
f 164//117 139//117 141//117
f 141//117 166//117 164//117
f 166//118 141//118 143//118
f 143//118 168//118 166//118
f 168//119 143//119 121//119
f 121//119 170//119 168//119
f 170//107 121//107 120//107
f 171//28 172//28 147//28
f 147//28 146//28 171//28
f 173//29 171//29 146//29
f 146//29 149//29 173//29
f 174//30 173//30 149//30
f 149//30 151//30 174//30
f 175//31 174//31 151//31
f 151//31 153//31 175//31
f 176//32 175//32 153//32
f 153//32 155//32 176//32
f 177//33 176//33 155//33
f 155//33 157//33 177//33
f 178//34 177//34 157//34
f 157//34 159//34 178//34
f 179//35 178//35 159//35
f 159//35 161//35 179//35
f 180//36 179//36 161//36
f 161//36 163//36 180//36
f 181//37 180//37 163//37
f 163//37 165//37 181//37
f 182//38 181//38 165//38
f 165//38 167//38 182//38
f 183//39 182//39 167//39
f 167//39 169//39 183//39
f 172//40 183//40 169//40
f 169//40 147//40 172//40
f 184//54 185//54 171//54
f 171//54 173//54 184//54
f 186//55 184//55 173//55
f 173//55 174//55 186//55
f 187//56 186//56 174//56
f 174//56 175//56 187//56
f 188//57 187//57 175//57
f 175//57 176//57 188//57
f 189//58 188//58 176//58
f 176//58 177//58 189//58
f 190//59 189//59 177//59
f 177//59 178//59 190//59
f 191//60 190//60 178//60
f 178//60 179//60 191//60
f 192//61 191//61 179//61
f 179//61 180//61 192//61
f 193//62 192//62 180//62
f 180//62 181//62 193//62
f 194//63 193//63 181//63
f 181//63 182//63 194//63
f 195//64 194//64 182//64
f 182//64 183//64 195//64
f 196//65 195//65 183//65
f 183//65 172//65 196//65
f 185//66 196//66 172//66
f 172//66 171//66 185//66
f 197//1 198//1 186//1
f 186//1 187//1 197//1
f 199//1 197//1 187//1
f 187//1 188//1 199//1
f 200//1 199//1 188//1
f 188//1 189//1 200//1
f 201//1 200//1 189//1
f 189//1 190//1 201//1
f 202//1 201//1 190//1
f 190//1 191//1 202//1
f 203//1 202//1 191//1
f 191//1 192//1 203//1
f 204//1 203//1 192//1
f 192//1 193//1 204//1
f 205//1 204//1 193//1
f 193//1 194//1 205//1
f 206//1 205//1 194//1
f 194//1 195//1 206//1
f 207//1 206//1 195//1
f 195//1 196//1 207//1
f 208//1 207//1 196//1
f 196//1 185//1 208//1
f 209//1 208//1 185//1
f 185//1 184//1 209//1
f 198//1 209//1 184//1
f 184//1 186//1 198//1
f 210//54 211//54 208//54
f 208//54 209//54 210//54
f 212//55 210//55 209//55
f 209//55 198//55 212//55
f 213//56 212//56 198//56
f 198//56 197//56 213//56
f 214//57 213//57 197//57
f 197//57 199//57 214//57
f 215//58 214//58 199//58
f 199//58 200//58 215//58
f 216//120 215//120 200//120
f 200//59 201//59 216//59
f 217//60 216//60 201//60
f 201//60 202//60 217//60
f 218//61 217//61 202//61
f 202//61 203//61 218//61
f 219//62 218//62 203//62
f 203//62 204//62 219//62
f 220//63 219//63 204//63
f 204//63 205//63 220//63
f 221//64 220//64 205//64
f 205//64 206//64 221//64
f 222//65 221//65 206//65
f 206//65 207//65 222//65
f 211//66 222//66 207//66
f 207//66 208//66 211//66
f 223//28 224//28 222//28
f 222//28 211//28 223//28
f 225//29 223//29 211//29
f 211//29 210//29 225//29
f 226//30 225//30 210//30
f 210//30 212//30 226//30
f 227//31 226//31 212//31
f 212//31 213//31 227//31
f 228//32 227//32 213//32
f 213//32 214//32 228//32
f 229//33 228//33 214//33
f 214//33 215//33 229//33
f 230//34 229//34 215//34
f 215//34 216//34 230//34
f 231//35 230//35 216//35
f 216//35 217//35 231//35
f 232//36 231//36 217//36
f 217//36 218//36 232//36
f 233//37 232//37 218//37
f 218//37 219//37 233//37
f 234//38 233//38 219//38
f 219//38 220//38 234//38
f 235//39 234//39 220//39
f 220//39 221//39 235//39
f 224//40 235//40 221//40
f 221//40 222//40 224//40
f 236//121 237//121 230//121
f 238//121 224//121 223//121
f 239//121 238//121 223//121
f 238//121 240//121 234//121
f 234//121 235//121 238//121
f 235//121 224//121 238//121
f 230//121 231//121 236//121
f 236//121 231//121 232//121
f 240//121 236//121 232//121
f 232//121 233//121 240//121
f 233//121 234//121 240//121
f 223//121 225//121 239//121
f 239//121 225//121 226//121
f 241//121 239//121 226//121
f 226//121 227//121 241//121
f 241//121 227//121 228//121
f 237//121 241//121 228//121
f 228//121 229//121 237//121
f 237//121 229//121 230//121
f 22//122 20//122 242//122
f 242//123 20//123 18//123
f 18//124 243//124 242//124
f 243//125 18//125 16//125
f 16//126 244//126 243//126
f 244//127 16//127 14//127
f 14//128 245//128 244//128
f 245//129 14//129 12//129
f 12//129 246//129 245//129
f 246//130 12//130 10//130
f 10//130 247//130 246//130
f 247//131 10//131 8//131
f 8//132 248//132 247//132
f 248//133 8//133 6//133
f 6//134 249//134 248//134
f 249//135 6//135 4//135
f 4//136 250//136 249//136
f 250//137 4//137 1//137
f 1//138 251//138 250//138
f 251//139 1//139 27//139
f 27//140 252//140 251//140
f 253//141 252//141 27//141
f 27//142 26//142 253//142
f 254//143 253//143 26//143
f 242//144 255//144 22//144
f 22//145 255//145 254//145
f 254//146 24//146 22//146
f 26//147 24//147 254//147
f 255//148 242//148 240//148
f 255//148 240//148 238//148
f 238//148 254//148 255//148
f 238//148 253//148 254//148
f 252//149 253//149 238//149
f 251//149 252//149 238//149
f 238//149 239//149 251//149
f 239//149 250//149 251//149
f 249//150 250//150 239//150
f 239//150 241//150 249//150
f 241//150 248//150 249//150
f 247//151 248//151 241//151
f 241//151 237//151 247//151
f 237//151 246//151 247//151
f 245//152 246//152 237//152
f 245//152 237//152 236//152
f 236//152 244//152 245//152
f 243//153 244//153 236//153
f 243//153 236//153 240//153
f 240//153 242//153 243//153
