# Blender 3.1.0
# www.blender.org
mtllib Nut_bottom.mtl
o stutz_bottom
v -0.279444 -0.033931 -1.336983
v -0.231667 -0.159908 -1.336983
v -0.261800 -0.180707 -1.336983
v -0.315791 -0.038344 -1.336983
v -0.263203 0.099820 -1.336983
v -0.297438 0.112803 -1.336983
v -0.186666 0.210703 -1.336983
v -0.210946 0.238109 -1.336983
v -0.067366 0.273316 -1.336983
v -0.076129 0.308867 -1.336983
v 0.067366 0.273316 -1.336983
v 0.076129 0.308867 -1.336983
v 0.186666 0.210703 -1.336983
v 0.210946 0.238109 -1.336983
v 0.263203 0.099820 -1.336983
v 0.297438 0.112803 -1.336983
v 0.279444 -0.033931 -1.336983
v 0.315791 -0.038344 -1.336983
v 0.231667 -0.159908 -1.336983
v 0.261800 -0.180707 -1.336983
v 0.130818 -0.249252 -1.336983
v 0.147833 -0.281673 -1.336983
v 0.000000 -0.281496 -1.336983
v -0.000000 -0.318110 -1.336983
v -0.130818 -0.249252 -1.336983
v -0.147833 -0.281673 -1.336983
v 0.147833 -0.281673 -0.116511
v 0.000000 -0.318110 -0.116511
v 0.261800 -0.180707 -0.116511
v 0.315791 -0.038344 -0.116511
v 0.297438 0.112803 -0.116511
v 0.210946 0.238109 -0.116511
v 0.076129 0.308867 -0.116511
v -0.076129 0.308867 -0.116511
v -0.210946 0.238109 -0.116511
v -0.297438 0.112803 -0.116511
v -0.315791 -0.038344 -0.116511
v -0.261800 -0.180707 -0.116511
v -0.147833 -0.281673 -0.116511
v -0.351747 -0.042710 -0.116511
v -0.331305 0.125647 -0.116511
v -0.234965 0.265220 -0.116511
v -0.084797 0.344034 -0.116511
v 0.084797 0.344034 -0.116511
v 0.234965 0.265220 -0.116511
v 0.331305 0.125647 -0.116511
v 0.351747 -0.042710 -0.116511
v 0.291608 -0.201283 -0.116511
v 0.164666 -0.313744 -0.116511
v -0.000000 -0.354331 -0.116511
v -0.164666 -0.313744 -0.116511
v -0.291608 -0.201283 -0.116511
v 0.164666 -0.313744 0.001600
v 0.000000 -0.354331 0.001600
v 0.291608 -0.201283 0.001600
v 0.351747 -0.042710 0.001600
v 0.331305 0.125647 0.001600
v 0.234965 0.265220 0.001600
v 0.084797 0.344034 0.001600
v -0.084797 0.344034 0.001600
v -0.234965 0.265220 0.001600
v -0.331305 0.125647 0.001600
v -0.351747 -0.042710 0.001600
v -0.291608 -0.201283 0.001600
v -0.164666 -0.313744 0.001600
v 0.047109 0.191130 0.001600
v 0.130536 0.147345 0.001600
v 0.184058 0.069804 0.001600
v 0.195415 -0.023728 0.001600
v 0.162005 -0.111824 0.001600
v 0.091481 -0.174302 0.001600
v -0.000000 -0.196850 0.001600
v -0.091481 -0.174302 0.001600
v -0.162005 -0.111824 0.001600
v -0.195415 -0.023728 0.001600
v -0.184058 0.069804 0.001600
v -0.130536 0.147345 0.001600
v -0.047109 0.191130 0.001600
v 0.000000 0.196850 0.001600
v 0.047109 0.191130 -1.061393
v -0.047109 0.191130 -1.061393
v -0.130536 0.147345 -1.061393
v -0.184058 0.069804 -1.061393
v -0.195415 -0.023728 -1.061393
v -0.162005 -0.111824 -1.061393
v -0.091481 -0.174302 -1.061393
v 0.000000 -0.196850 -1.061393
v 0.091481 -0.174302 -1.061393
v 0.162005 -0.111824 -1.061393
v 0.195415 -0.023728 -1.061393
v 0.184058 0.069804 -1.061393
v 0.130536 0.147345 -1.061393
v 0.067366 -0.273316 -1.163083
v 0.130818 -0.249252 -1.163083
v 0.186666 -0.210703 -1.163083
v 0.231667 -0.159908 -1.163083
v 0.263203 -0.099820 -1.163083
v 0.279444 -0.033931 -1.163083
v 0.279444 0.033931 -1.163083
v 0.263203 0.099820 -1.163083
v 0.231667 0.159908 -1.163083
v 0.186666 0.210703 -1.163083
v 0.130818 0.249252 -1.163083
v 0.067366 0.273316 -1.163083
v 0.000000 0.281496 -1.163083
v -0.067366 0.273316 -1.163083
v -0.130818 0.249252 -1.163083
v -0.186666 0.210703 -1.163083
v -0.231667 0.159908 -1.163083
v -0.263203 0.099820 -1.163083
v -0.279444 0.033931 -1.163083
v -0.279444 -0.033931 -1.163083
v -0.263203 -0.099820 -1.163083
v -0.231667 -0.159908 -1.163083
v -0.186666 -0.210703 -1.163083
v -0.130818 -0.249252 -1.163083
v -0.067366 -0.273316 -1.163083
v 0.000000 -0.281496 -1.163083
v 0.000000 0.236220 -1.061393
v -0.109777 0.209163 -1.061393
v -0.194406 0.134189 -1.061393
v -0.234498 0.028473 -1.061393
v -0.220870 -0.083765 -1.061393
v -0.156643 -0.176814 -1.061393
v -0.056531 -0.229356 -1.061393
v 0.056531 -0.229356 -1.061393
v 0.156643 -0.176814 -1.061393
v 0.000000 -0.236220 -1.061393
v 0.220870 -0.083765 -1.061393
v 0.234498 0.028473 -1.061393
v 0.194406 0.134189 -1.061393
v 0.109777 0.209163 -1.061393
vn -0.0000 -0.0000 -1.0000
vn 0.2393 -0.9709 -0.0000
vn 0.6631 -0.7485 -0.0000
vn 0.9350 -0.3546 -0.0000
vn 0.9927 0.1205 -0.0000
vn 0.8230 0.5681 -0.0000
vn 0.4647 0.8855 -0.0000
vn -0.0000 1.0000 -0.0000
vn -0.4647 0.8855 -0.0000
vn -0.8230 0.5681 -0.0000
vn -0.9927 0.1205 -0.0000
vn -0.9350 -0.3546 -0.0000
vn -0.6631 -0.7485 -0.0000
vn -0.2393 -0.9709 -0.0000
vn -0.0000 -0.0000 1.0000
vn -0.4647 -0.8855 -0.0000
vn -0.1205 -0.9927 -0.0000
vn -0.0000 -1.0000 0.0054
vn 0.1205 -0.9927 -0.0000
vn 0.4647 -0.8855 -0.0000
vn 0.8230 -0.5681 -0.0000
vn 0.9927 -0.1205 -0.0000
vn 0.9350 0.3546 -0.0000
vn 0.6631 0.7485 -0.0000
vn 0.2393 0.9709 -0.0000
vn -0.2393 0.9709 -0.0000
vn -0.6631 0.7485 -0.0000
vn -0.9350 0.3546 -0.0000
vn -0.9927 -0.1205 -0.0000
vn -0.8230 -0.5681 -0.0000
vn -0.2391 0.9699 0.0470
vn -0.3546 0.9350 -0.0000
vn -0.5681 0.8230 -0.0000
vn -0.6624 0.7477 0.0470
vn -0.7485 0.6631 -0.0000
vn -0.8855 0.4647 -0.0000
vn -0.9340 0.3542 0.0470
vn -0.9709 0.2393 -0.0000
vn -1.0000 -0.0000 -0.0000
vn -0.9916 -0.1204 0.0470
vn -0.9709 -0.2393 -0.0000
vn -0.8855 -0.4647 -0.0000
vn -0.8221 -0.5674 0.0470
vn -0.7485 -0.6631 -0.0000
vn -0.5681 -0.8230 -0.0000
vn -0.4642 -0.8845 0.0470
vn -0.3546 -0.9350 -0.0000
vn -0.0000 -0.9989 0.0470
vn 0.3546 -0.9350 -0.0000
vn 0.4642 -0.8845 0.0470
vn 0.5681 -0.8230 -0.0000
vn 0.7485 -0.6631 -0.0000
vn 0.8221 -0.5674 0.0470
vn 0.8855 -0.4647 -0.0000
vn 0.9709 -0.2393 -0.0000
vn 0.9916 -0.1204 0.0470
vn 1.0000 -0.0000 -0.0000
vn 0.9709 0.2393 -0.0000
vn 0.9340 0.3542 0.0470
vn 0.8855 0.4647 -0.0000
vn 0.7485 0.6631 -0.0000
vn 0.6624 0.7477 0.0470
vn 0.5681 0.8230 -0.0000
vn 0.3546 0.9350 -0.0000
vn 0.2391 0.9699 0.0470
vn 0.1205 0.9927 -0.0000
vn -0.1205 0.9927 -0.0000
vn 0.2130 -0.8640 -0.4563
vn 0.5901 -0.6661 -0.4563
vn 0.5196 -0.7527 -0.4043
vn 0.3243 -0.8552 -0.4043
vn 0.8320 -0.3155 -0.4563
vn 0.8099 -0.4251 -0.4043
vn 0.6846 -0.6065 -0.4043
vn 0.8834 0.1073 -0.4563
vn 0.9146 -0.0000 -0.4043
vn 0.8881 -0.2189 -0.4043
vn 0.7323 0.5055 -0.4563
vn 0.8099 0.4251 -0.4043
vn 0.8881 0.2189 -0.4043
vn 0.4135 0.7879 -0.4563
vn 0.5196 0.7527 -0.4043
vn 0.6846 0.6065 -0.4043
vn -0.4135 0.7879 -0.4563
vn -0.3243 0.8552 -0.4043
vn -0.1102 0.9080 -0.4043
vn 0.1102 0.9080 -0.4043
vn 0.3243 0.8552 -0.4043
vn -0.7323 0.5055 -0.4563
vn -0.6846 0.6065 -0.4043
vn -0.5196 0.7527 -0.4043
vn -0.8834 0.1073 -0.4563
vn -0.8881 0.2189 -0.4043
vn -0.8099 0.4251 -0.4043
vn -0.8320 -0.3155 -0.4563
vn -0.8881 -0.2189 -0.4043
vn -0.9146 -0.0000 -0.4043
vn -0.5901 -0.6661 -0.4563
vn -0.6846 -0.6065 -0.4043
vn -0.8099 -0.4251 -0.4043
vn 0.1102 -0.9080 -0.4043
vn -0.1102 -0.9080 -0.4043
vn -0.2130 -0.8640 -0.4563
vn -0.3243 -0.8552 -0.4043
vn -0.5196 -0.7527 -0.4043
s 0
f 1//1 2//1 3//1
f 3//1 4//1 1//1
f 5//1 1//1 4//1
f 4//1 6//1 5//1
f 7//1 5//1 6//1
f 6//1 8//1 7//1
f 9//1 7//1 8//1
f 8//1 10//1 9//1
f 11//1 9//1 10//1
f 10//1 12//1 11//1
f 13//1 11//1 12//1
f 12//1 14//1 13//1
f 15//1 13//1 14//1
f 14//1 16//1 15//1
f 17//1 15//1 16//1
f 16//1 18//1 17//1
f 19//1 17//1 18//1
f 18//1 20//1 19//1
f 21//1 19//1 20//1
f 20//1 22//1 21//1
f 23//1 21//1 22//1
f 22//1 24//1 23//1
f 25//1 23//1 24//1
f 24//1 26//1 25//1
f 2//1 25//1 26//1
f 26//1 3//1 2//1
f 22//2 27//2 28//2
f 27//3 22//3 20//3
f 20//3 29//3 27//3
f 29//4 20//4 18//4
f 18//4 30//4 29//4
f 30//5 18//5 16//5
f 16//5 31//5 30//5
f 31//6 16//6 14//6
f 14//6 32//6 31//6
f 32//7 14//7 12//7
f 12//7 33//7 32//7
f 33//8 12//8 10//8
f 10//8 34//8 33//8
f 34//9 10//9 8//9
f 8//9 35//9 34//9
f 35//10 8//10 6//10
f 6//10 36//10 35//10
f 36//11 6//11 4//11
f 4//11 37//11 36//11
f 37//12 4//12 3//12
f 3//12 38//12 37//12
f 38//13 3//13 26//13
f 26//13 39//13 38//13
f 39//14 26//14 24//14
f 24//14 28//14 39//14
f 28//2 24//2 22//2
f 36//1 37//1 40//1
f 40//1 41//1 36//1
f 35//1 36//1 41//1
f 41//1 42//1 35//1
f 34//1 35//1 42//1
f 42//1 43//1 34//1
f 33//1 34//1 43//1
f 43//1 44//1 33//1
f 32//1 33//1 44//1
f 44//1 45//1 32//1
f 31//1 32//1 45//1
f 45//1 46//1 31//1
f 30//1 31//1 46//1
f 46//1 47//1 30//1
f 29//1 30//1 47//1
f 47//1 48//1 29//1
f 27//1 29//1 48//1
f 48//1 49//1 27//1
f 28//1 27//1 49//1
f 49//1 50//1 28//1
f 39//1 28//1 50//1
f 50//1 51//1 39//1
f 38//1 39//1 51//1
f 51//1 52//1 38//1
f 37//1 38//1 52//1
f 52//1 40//1 37//1
f 49//2 53//2 54//2
f 53//3 49//3 48//3
f 48//3 55//3 53//3
f 55//4 48//4 47//4
f 47//4 56//4 55//4
f 56//5 47//5 46//5
f 46//5 57//5 56//5
f 57//6 46//6 45//6
f 45//6 58//6 57//6
f 58//7 45//7 44//7
f 44//7 59//7 58//7
f 59//8 44//8 43//8
f 43//8 60//8 59//8
f 60//9 43//9 42//9
f 42//9 61//9 60//9
f 61//10 42//10 41//10
f 41//10 62//10 61//10
f 62//11 41//11 40//11
f 40//11 63//11 62//11
f 63//12 40//12 52//12
f 52//12 64//12 63//12
f 64//13 52//13 51//13
f 51//13 65//13 64//13
f 65//14 51//14 50//14
f 50//14 54//14 65//14
f 54//2 50//2 49//2
f 58//15 59//15 66//15
f 66//15 67//15 58//15
f 57//15 58//15 67//15
f 67//15 68//15 57//15
f 56//15 57//15 68//15
f 68//15 69//15 56//15
f 55//15 56//15 69//15
f 69//15 70//15 55//15
f 53//15 55//15 70//15
f 70//15 71//15 53//15
f 54//15 53//15 71//15
f 71//15 72//15 54//15
f 65//15 54//15 72//15
f 72//15 73//15 65//15
f 64//15 65//15 73//15
f 73//15 74//15 64//15
f 63//15 64//15 74//15
f 74//15 75//15 63//15
f 62//15 63//15 75//15
f 75//15 76//15 62//15
f 61//15 62//15 76//15
f 76//15 77//15 61//15
f 60//15 61//15 77//15
f 77//15 78//15 60//15
f 59//15 60//15 78//15
f 78//15 79//15 59//15
f 79//15 66//15 59//15
f 67//16 66//16 80//16
f 80//17 66//17 79//17
f 81//18 80//18 79//18
f 79//19 78//19 81//19
f 82//20 81//20 78//20
f 78//20 77//20 82//20
f 83//21 82//21 77//21
f 77//21 76//21 83//21
f 84//22 83//22 76//22
f 76//22 75//22 84//22
f 85//23 84//23 75//23
f 75//23 74//23 85//23
f 86//24 85//24 74//24
f 74//24 73//24 86//24
f 87//25 86//25 73//25
f 73//25 72//25 87//25
f 88//26 87//26 72//26
f 72//26 71//26 88//26
f 89//27 88//27 71//27
f 71//27 70//27 89//27
f 90//28 89//28 70//28
f 70//28 69//28 90//28
f 91//29 90//29 69//29
f 69//29 68//29 91//29
f 92//30 91//30 68//30
f 68//30 67//30 92//30
f 80//16 92//16 67//16
f 93//31 21//31 23//31
f 93//32 94//32 21//32
f 21//33 94//33 95//33
f 95//34 19//34 21//34
f 95//35 96//35 19//35
f 19//36 96//36 97//36
f 97//37 17//37 19//37
f 97//38 98//38 17//38
f 17//39 98//39 99//39
f 99//40 15//40 17//40
f 99//41 100//41 15//41
f 15//42 100//42 101//42
f 101//43 13//43 15//43
f 101//44 102//44 13//44
f 13//45 102//45 103//45
f 103//46 11//46 13//46
f 103//47 104//47 11//47
f 11//17 104//17 105//17
f 105//48 9//48 11//48
f 105//19 106//19 9//19
f 9//49 106//49 107//49
f 107//50 7//50 9//50
f 107//51 108//51 7//51
f 7//52 108//52 109//52
f 109//53 5//53 7//53
f 109//54 110//54 5//54
f 5//55 110//55 111//55
f 111//56 1//56 5//56
f 111//57 112//57 1//57
f 1//58 112//58 113//58
f 113//59 2//59 1//59
f 113//60 114//60 2//60
f 2//61 114//61 115//61
f 115//62 25//62 2//62
f 115//63 116//63 25//63
f 25//64 116//64 117//64
f 117//65 23//65 25//65
f 117//66 118//66 23//66
f 23//67 118//67 93//67
f 106//68 119//68 120//68
f 108//69 120//69 121//69
f 108//70 107//70 120//70
f 120//71 107//71 106//71
f 110//72 121//72 122//72
f 110//73 109//73 121//73
f 121//74 109//74 108//74
f 112//75 122//75 123//75
f 112//76 111//76 122//76
f 122//77 111//77 110//77
f 114//78 123//78 124//78
f 114//79 113//79 123//79
f 123//80 113//80 112//80
f 116//81 124//81 125//81
f 116//82 115//82 124//82
f 124//83 115//83 114//83
f 94//84 126//84 127//84
f 94//85 93//85 126//85
f 128//86 126//86 93//86
f 93//86 118//86 128//86
f 125//87 128//87 118//87
f 118//87 117//87 125//87
f 125//88 117//88 116//88
f 96//89 127//89 129//89
f 96//90 95//90 127//90
f 127//91 95//91 94//91
f 98//92 129//92 130//92
f 98//93 97//93 129//93
f 129//94 97//94 96//94
f 100//95 130//95 131//95
f 100//96 99//96 130//96
f 130//97 99//97 98//97
f 102//98 131//98 132//98
f 102//99 101//99 131//99
f 131//100 101//100 100//100
f 106//101 105//101 119//101
f 119//102 105//102 104//102
f 104//103 132//103 119//103
f 104//104 103//104 132//104
f 132//105 103//105 102//105
f 128//1 125//1 86//1
f 125//1 124//1 86//1
f 85//1 86//1 124//1
f 124//1 123//1 85//1
f 84//1 85//1 123//1
f 123//1 122//1 84//1
f 83//1 84//1 122//1
f 122//1 121//1 83//1
f 82//1 83//1 121//1
f 121//1 120//1 82//1
f 81//1 82//1 120//1
f 120//1 119//1 81//1
f 80//1 81//1 119//1
f 119//1 132//1 80//1
f 92//1 80//1 132//1
f 132//1 131//1 92//1
f 91//1 92//1 131//1
f 131//1 130//1 91//1
f 90//1 91//1 130//1
f 130//1 129//1 90//1
f 89//1 90//1 129//1
f 129//1 127//1 89//1
f 88//1 89//1 127//1
f 127//1 126//1 88//1
f 87//1 88//1 126//1
f 126//1 128//1 87//1
f 86//1 87//1 128//1
