# Blender 3.1.0
# www.blender.org
mtllib Screw_bottom.mtl
o screw_bottom
v 0.000000 -0.407480 0.004309
v 0.189366 -0.360806 0.004309
v 0.000000 0.000000 0.004309
v -0.404509 -0.049116 0.004309
v -0.335350 -0.231475 0.004309
v -0.189366 -0.360806 0.004309
v -0.097516 0.395640 0.004309
v -0.270209 0.305003 0.004309
v -0.381001 0.144495 0.004309
v 0.381001 0.144495 0.004309
v 0.270209 0.305003 0.004309
v 0.097516 0.395640 0.004309
v 0.335350 -0.231475 0.004309
v 0.404509 -0.049116 0.004309
v 0.185865 -0.354136 0.002810
v 0.329150 -0.227196 0.002810
v 0.397031 -0.048208 0.002810
v 0.373957 0.141823 0.002810
v 0.265214 0.299365 0.002810
v 0.095714 0.388325 0.002810
v -0.095714 0.388325 0.002810
v -0.265214 0.299365 0.002810
v -0.373957 0.141823 0.002810
v -0.397031 -0.048208 0.002810
v -0.329150 -0.227196 0.002810
v -0.185865 -0.354136 0.002810
v 0.000000 -0.399947 0.002810
v 0.182897 -0.348481 -0.001457
v 0.323894 -0.223568 -0.001457
v 0.390691 -0.047439 -0.001457
v 0.367986 0.139559 -0.001457
v 0.260979 0.294585 -0.001457
v 0.094185 0.382125 -0.001457
v -0.094185 0.382125 -0.001457
v -0.260979 0.294585 -0.001457
v -0.367986 0.139559 -0.001457
v -0.390691 -0.047439 -0.001457
v -0.323894 -0.223568 -0.001457
v -0.182897 -0.348481 -0.001457
v 0.000000 -0.393561 -0.001457
v 0.180914 -0.344702 -0.007843
v 0.320382 -0.221144 -0.007843
v 0.386455 -0.046924 -0.007843
v 0.363996 0.138045 -0.007843
v 0.258149 0.291391 -0.007843
v 0.093164 0.377982 -0.007843
v -0.093164 0.377982 -0.007843
v -0.258149 0.291391 -0.007843
v -0.363996 0.138045 -0.007843
v -0.386455 -0.046924 -0.007843
v -0.320382 -0.221144 -0.007843
v -0.180914 -0.344702 -0.007843
v 0.000000 -0.389294 -0.007843
v 0.180217 -0.343376 -0.015376
v 0.319149 -0.220293 -0.015376
v 0.384968 -0.046744 -0.015376
v 0.362595 0.137514 -0.015376
v 0.257156 0.290269 -0.015376
v 0.092805 0.376527 -0.015376
v -0.092805 0.376527 -0.015376
v -0.257156 0.290269 -0.015376
v -0.362595 0.137514 -0.015376
v -0.384968 -0.046744 -0.015376
v -0.319149 -0.220293 -0.015376
v -0.180217 -0.343376 -0.015376
v -0.000000 -0.387795 -0.015376
v 0.180217 -0.343376 -0.063068
v 0.319149 -0.220293 -0.063068
v 0.384968 -0.046744 -0.063068
v 0.362595 0.137514 -0.063068
v 0.257156 0.290269 -0.063068
v 0.092805 0.376527 -0.063068
v -0.092805 0.376527 -0.063068
v -0.257156 0.290269 -0.063068
v -0.362595 0.137514 -0.063068
v -0.384968 -0.046744 -0.063068
v -0.319149 -0.220293 -0.063068
v -0.180217 -0.343376 -0.063068
v 0.000000 -0.387795 -0.063068
v 0.180769 -0.344427 -0.069801
v 0.320126 -0.220967 -0.069801
v 0.386146 -0.046887 -0.069801
v 0.363705 0.137935 -0.069801
v 0.257943 0.291158 -0.069801
v 0.093090 0.377679 -0.069801
v -0.093090 0.377679 -0.069801
v -0.257943 0.291158 -0.069801
v -0.363705 0.137935 -0.069801
v -0.386146 -0.046887 -0.069801
v -0.320126 -0.220967 -0.069801
v -0.180769 -0.344427 -0.069801
v 0.000000 -0.388982 -0.069801
v 0.182358 -0.347454 -0.075721
v 0.322939 -0.222909 -0.075721
v 0.389540 -0.047299 -0.075721
v 0.366901 0.139147 -0.075721
v 0.260210 0.293716 -0.075721
v 0.093908 0.380998 -0.075721
v -0.093908 0.380998 -0.075721
v -0.260210 0.293716 -0.075721
v -0.366901 0.139147 -0.075721
v -0.389540 -0.047299 -0.075721
v -0.322939 -0.222909 -0.075721
v -0.182358 -0.347454 -0.075721
v 0.000000 -0.392401 -0.075721
v 0.184791 -0.352091 -0.080116
v 0.327249 -0.225884 -0.080116
v 0.394739 -0.047930 -0.080116
v 0.371798 0.141004 -0.080116
v 0.263683 0.297636 -0.080116
v 0.095161 0.386083 -0.080116
v -0.095161 0.386083 -0.080116
v -0.263683 0.297636 -0.080116
v -0.371798 0.141004 -0.080116
v -0.394739 -0.047930 -0.080116
v -0.327249 -0.225884 -0.080116
v -0.184791 -0.352091 -0.080116
v -0.000000 -0.397638 -0.080116
v -0.103641 0.420487 -0.100573
v -0.201258 0.383465 -0.100573
v -0.287179 0.324158 -0.100573
v -0.356410 0.246012 -0.100573
v -0.404928 0.153569 -0.100573
v -0.429913 0.052201 -0.100573
v -0.429913 -0.052201 -0.100573
v -0.356410 -0.246012 -0.100573
v -0.287179 -0.324158 -0.100573
v -0.404928 -0.153569 -0.100573
v -0.201258 -0.383465 -0.100573
v -0.103641 -0.420487 -0.100573
v 0.000000 -0.433071 -0.100573
v 0.103641 -0.420487 -0.100573
v 0.201258 -0.383465 -0.100573
v 0.287179 -0.324158 -0.100573
v 0.356410 -0.246012 -0.100573
v 0.404928 -0.153569 -0.100573
v 0.429913 -0.052201 -0.100573
v 0.429913 0.052201 -0.100573
v 0.404928 0.153569 -0.100573
v 0.356410 0.246012 -0.100573
v 0.287179 0.324158 -0.100573
v 0.201258 0.383465 -0.100573
v 0.103641 0.420487 -0.100573
v 0.000000 0.433071 -0.100573
v -0.201258 -0.383465 -0.369707
v 0.000000 -0.433071 -0.369707
v -0.356410 -0.246012 -0.369707
v -0.429913 -0.052201 -0.369707
v -0.404928 0.153569 -0.369707
v -0.287179 0.324158 -0.369707
v -0.103641 0.420487 -0.369707
v 0.103641 0.420487 -0.369707
v 0.287179 0.324158 -0.369707
v 0.404928 0.153569 -0.369707
v 0.429913 -0.052201 -0.369707
v 0.356410 -0.246012 -0.369707
v 0.201258 -0.383465 -0.369707
v 0.182962 -0.348605 -0.409077
v 0.324009 -0.223648 -0.409077
v 0.390830 -0.047455 -0.409077
v 0.368117 0.139608 -0.409077
v 0.261072 0.294689 -0.409077
v 0.094219 0.382261 -0.409077
v -0.094219 0.382261 -0.409077
v -0.261072 0.294689 -0.409077
v -0.368117 0.139608 -0.409077
v -0.390830 -0.047455 -0.409077
v -0.324009 -0.223648 -0.409077
v -0.182962 -0.348605 -0.409077
v -0.000000 -0.393701 -0.409077
v 0.000000 0.000000 -0.409077
vn -0.0000 -0.0000 1.0000
vn 0.1331 -0.1502 -0.9797
vn 0.1877 -0.0712 -0.9797
vn 0.1992 0.0242 -0.9797
vn 0.1652 0.1140 -0.9797
vn 0.0933 0.1777 -0.9797
vn -0.0000 0.2007 -0.9797
vn -0.0933 0.1777 -0.9797
vn -0.1652 0.1140 -0.9797
vn -0.1992 0.0242 -0.9797
vn -0.1877 -0.0712 -0.9797
vn -0.1331 -0.1502 -0.9797
vn -0.0480 -0.1949 -0.9797
vn 0.0480 -0.1949 -0.9797
vn 0.3759 -0.4243 -0.8238
vn 0.5301 -0.2010 -0.8238
vn 0.5628 0.0683 -0.8238
vn 0.4666 0.3220 -0.8238
vn 0.2635 0.5020 -0.8238
vn -0.0000 0.5669 -0.8238
vn -0.2635 0.5020 -0.8238
vn -0.4666 0.3220 -0.8238
vn -0.5628 0.0683 -0.8238
vn -0.5301 -0.2010 -0.8238
vn -0.3759 -0.4243 -0.8238
vn -0.1357 -0.5504 -0.8238
vn 0.1357 -0.5504 -0.8238
vn 0.5563 -0.6279 -0.5443
vn 0.7844 -0.2975 -0.5443
vn 0.8328 0.1011 -0.5443
vn 0.6904 0.4766 -0.5443
vn 0.3899 0.7428 -0.5443
vn -0.0000 0.8389 -0.5443
vn -0.3899 0.7428 -0.5443
vn -0.6904 0.4766 -0.5443
vn -0.8328 0.1011 -0.5443
vn -0.7844 -0.2975 -0.5443
vn -0.5563 -0.6279 -0.5443
vn -0.2008 -0.8145 -0.5443
vn 0.2008 -0.8145 -0.5443
vn 0.6511 -0.7349 -0.1896
vn 0.9181 -0.3482 -0.1896
vn 0.9747 0.1183 -0.1896
vn 0.8081 0.5578 -0.1896
vn 0.4563 0.8694 -0.1896
vn -0.0000 0.9819 -0.1896
vn -0.4563 0.8694 -0.1896
vn -0.8081 0.5578 -0.1896
vn -0.9747 0.1184 -0.1896
vn -0.9747 0.1183 -0.1896
vn -0.9181 -0.3482 -0.1896
vn -0.6511 -0.7349 -0.1896
vn -0.2350 -0.9533 -0.1896
vn 0.2350 -0.9533 -0.1896
vn 0.2393 -0.9709 -0.0000
vn 0.6631 -0.7485 -0.0000
vn 0.9350 -0.3546 -0.0000
vn 0.9927 0.1205 -0.0000
vn 0.8230 0.5681 -0.0000
vn 0.4647 0.8855 -0.0000
vn -0.0000 1.0000 -0.0000
vn -0.4647 0.8855 -0.0000
vn -0.8230 0.5681 -0.0000
vn -0.9927 0.1205 -0.0000
vn -0.9350 -0.3546 -0.0000
vn -0.6631 -0.7485 -0.0000
vn -0.2393 -0.9709 -0.0000
vn 0.6536 -0.7378 0.1688
vn 0.6536 -0.7378 0.1687
vn 0.9216 -0.3495 0.1687
vn 0.9216 -0.3495 0.1688
vn 0.9785 0.1188 0.1688
vn 0.8112 0.5599 0.1687
vn 0.8112 0.5599 0.1688
vn 0.4581 0.8728 0.1687
vn -0.0000 0.9857 0.1687
vn -0.4581 0.8728 0.1687
vn -0.8112 0.5599 0.1687
vn -0.9785 0.1188 0.1688
vn -0.9216 -0.3495 0.1687
vn -0.9216 -0.3495 0.1688
vn -0.6536 -0.7378 0.1687
vn -0.6536 -0.7378 0.1688
vn -0.2359 -0.9570 0.1688
vn -0.2359 -0.9570 0.1687
vn 0.2359 -0.9570 0.1687
vn 0.2359 -0.9570 0.1688
vn 0.5784 -0.6529 0.4890
vn 0.8156 -0.3093 0.4890
vn 0.8659 0.1051 0.4890
vn 0.7179 0.4955 0.4890
vn 0.4054 0.7724 0.4890
vn -0.0000 0.8723 0.4890
vn -0.4054 0.7724 0.4890
vn -0.7179 0.4955 0.4890
vn -0.8659 0.1051 0.4890
vn -0.8156 -0.3093 0.4890
vn -0.5784 -0.6529 0.4890
vn -0.2088 -0.8469 0.4890
vn 0.2088 -0.8469 0.4890
vn 0.4336 -0.4894 0.7566
vn 0.6114 -0.2319 0.7566
vn 0.6491 0.0788 0.7566
vn 0.5381 0.3714 0.7566
vn 0.3039 0.5790 0.7566
vn -0.0000 0.6539 0.7566
vn -0.3039 0.5790 0.7566
vn -0.5381 0.3714 0.7566
vn -0.6491 0.0788 0.7566
vn -0.6114 -0.2319 0.7566
vn -0.4336 -0.4894 0.7566
vn -0.1565 -0.6349 0.7566
vn 0.1565 -0.6349 0.7566
vn -0.2375 0.4526 0.8595
vn -0.1177 0.3105 0.9433
vn -0.2856 0.4138 0.8644
vn -0.4206 0.2903 0.8595
vn -0.2485 0.2202 0.9433
vn -0.4452 0.2336 0.8644
vn -0.5074 0.0616 0.8595
vn -0.3224 0.0795 0.9433
vn -0.5027 -0.0000 0.8644
vn -0.4779 -0.1812 0.8595
vn -0.2485 -0.2202 0.9433
vn -0.3389 -0.3826 0.8595
vn -0.4452 -0.2336 0.8644
vn -0.3224 -0.0795 0.9433
vn -0.2856 -0.4138 0.8644
vn -0.1783 -0.4701 0.8644
vn -0.0955 -0.3876 0.9169
vn -0.0606 -0.4991 0.8644
vn 0.1223 -0.4962 0.8595
vn 0.0400 -0.3296 0.9433
vn 0.1783 -0.4701 0.8644
vn 0.3389 -0.3826 0.8595
vn 0.1886 -0.2733 0.9433
vn 0.3763 -0.3334 0.8644
vn 0.4779 -0.1812 0.8595
vn 0.2940 -0.1543 0.9433
vn 0.4881 -0.1203 0.8644
vn 0.5074 0.0616 0.8595
vn 0.3320 -0.0000 0.9433
vn 0.4881 0.1203 0.8644
vn 0.4206 0.2903 0.8595
vn 0.2940 0.1543 0.9433
vn 0.3763 0.3334 0.8644
vn 0.2375 0.4526 0.8595
vn 0.1886 0.2733 0.9433
vn 0.1783 0.4701 0.8644
vn -0.0000 0.5111 0.8595
vn 0.0400 0.3296 0.9433
vn -0.0606 0.4991 0.8644
vn -0.2391 -0.9699 -0.0467
vn -0.3546 -0.9350 -0.0000
vn -0.5681 -0.8230 -0.0000
vn -0.6624 -0.7477 -0.0467
vn -0.7485 -0.6631 -0.0000
vn -0.8855 -0.4647 -0.0000
vn -0.9340 -0.3542 -0.0467
vn -0.9709 -0.2393 -0.0000
vn -1.0000 -0.0000 -0.0000
vn -0.9916 0.1204 -0.0467
vn -0.9709 0.2393 -0.0000
vn -0.8855 0.4647 -0.0000
vn -0.8221 0.5674 -0.0467
vn -0.7485 0.6631 -0.0000
vn -0.5681 0.8230 -0.0000
vn -0.4642 0.8845 -0.0467
vn -0.3546 0.9350 -0.0000
vn -0.1205 0.9927 -0.0000
vn -0.0000 0.9989 -0.0467
vn 0.1205 0.9927 -0.0000
vn 0.3546 0.9350 -0.0000
vn 0.4642 0.8845 -0.0467
vn 0.5681 0.8230 -0.0000
vn 0.7485 0.6631 -0.0000
vn 0.8221 0.5674 -0.0467
vn 0.8855 0.4647 -0.0000
vn 0.9709 0.2393 -0.0000
vn 0.9916 0.1204 -0.0467
vn 1.0000 -0.0000 -0.0000
vn 0.9709 -0.2393 -0.0000
vn 0.9340 -0.3542 -0.0467
vn 0.8855 -0.4647 -0.0000
vn 0.7485 -0.6631 -0.0000
vn 0.6624 -0.7477 -0.0467
vn 0.5681 -0.8230 -0.0000
vn 0.3546 -0.9350 -0.0000
vn 0.2391 -0.9699 -0.0467
vn 0.1205 -0.9927 -0.0000
vn -0.1205 -0.9927 -0.0000
vn 0.1717 -0.6966 -0.6966
vn 0.4758 -0.5370 -0.6966
vn 0.6708 -0.2544 -0.6966
vn 0.7122 0.0865 -0.6966
vn 0.5905 0.4076 -0.6966
vn 0.3334 0.6353 -0.6966
vn -0.0000 0.7175 -0.6966
vn -0.3334 0.6353 -0.6966
vn -0.5905 0.4076 -0.6966
vn -0.7122 0.0865 -0.6966
vn -0.6708 -0.2544 -0.6966
vn -0.4758 -0.5370 -0.6966
vn -0.1717 -0.6966 -0.6966
vn -0.0000 -0.0000 -1.0000
s 0
f 1//1 2//1 3//1
f 4//1 5//1 3//1
f 5//1 6//1 3//1
f 6//1 1//1 3//1
f 7//1 8//1 3//1
f 8//1 9//1 3//1
f 9//1 4//1 3//1
f 10//1 11//1 3//1
f 11//1 12//1 3//1
f 12//1 7//1 3//1
f 3//1 2//1 13//1
f 13//1 14//1 3//1
f 14//1 10//1 3//1
f 13//2 2//2 15//2
f 15//2 16//2 13//2
f 14//3 13//3 16//3
f 16//3 17//3 14//3
f 10//4 14//4 17//4
f 17//4 18//4 10//4
f 11//5 10//5 18//5
f 18//5 19//5 11//5
f 12//6 11//6 19//6
f 19//6 20//6 12//6
f 7//7 12//7 20//7
f 20//7 21//7 7//7
f 8//8 7//8 21//8
f 21//8 22//8 8//8
f 9//9 8//9 22//9
f 22//9 23//9 9//9
f 4//10 9//10 23//10
f 23//10 24//10 4//10
f 5//11 4//11 24//11
f 24//11 25//11 5//11
f 6//12 5//12 25//12
f 25//12 26//12 6//12
f 1//13 6//13 26//13
f 26//13 27//13 1//13
f 2//14 1//14 27//14
f 27//14 15//14 2//14
f 16//15 15//15 28//15
f 28//15 29//15 16//15
f 17//16 16//16 29//16
f 29//16 30//16 17//16
f 18//17 17//17 30//17
f 30//17 31//17 18//17
f 19//18 18//18 31//18
f 31//18 32//18 19//18
f 20//19 19//19 32//19
f 32//19 33//19 20//19
f 21//20 20//20 33//20
f 33//20 34//20 21//20
f 22//21 21//21 34//21
f 34//21 35//21 22//21
f 23//22 22//22 35//22
f 35//22 36//22 23//22
f 24//23 23//23 36//23
f 36//23 37//23 24//23
f 25//24 24//24 37//24
f 37//24 38//24 25//24
f 26//25 25//25 38//25
f 38//25 39//25 26//25
f 27//26 26//26 39//26
f 39//26 40//26 27//26
f 15//27 27//27 40//27
f 40//27 28//27 15//27
f 29//28 28//28 41//28
f 41//28 42//28 29//28
f 30//29 29//29 42//29
f 42//29 43//29 30//29
f 31//30 30//30 43//30
f 43//30 44//30 31//30
f 32//31 31//31 44//31
f 44//31 45//31 32//31
f 33//32 32//32 45//32
f 45//32 46//32 33//32
f 34//33 33//33 46//33
f 46//33 47//33 34//33
f 35//34 34//34 47//34
f 47//34 48//34 35//34
f 36//35 35//35 48//35
f 48//35 49//35 36//35
f 37//36 36//36 49//36
f 49//36 50//36 37//36
f 38//37 37//37 50//37
f 50//37 51//37 38//37
f 39//38 38//38 51//38
f 51//38 52//38 39//38
f 40//39 39//39 52//39
f 52//39 53//39 40//39
f 28//40 40//40 53//40
f 53//40 41//40 28//40
f 42//41 41//41 54//41
f 54//41 55//41 42//41
f 43//42 42//42 55//42
f 55//42 56//42 43//42
f 44//43 43//43 56//43
f 56//43 57//43 44//43
f 45//44 44//44 57//44
f 57//44 58//44 45//44
f 46//45 45//45 58//45
f 58//45 59//45 46//45
f 47//46 46//46 59//46
f 59//46 60//46 47//46
f 48//47 47//47 60//47
f 60//47 61//47 48//47
f 49//48 48//48 61//48
f 61//48 62//48 49//48
f 50//49 49//49 62//49
f 62//50 63//50 50//50
f 51//51 50//51 63//51
f 63//51 64//51 51//51
f 52//52 51//52 64//52
f 64//52 65//52 52//52
f 53//53 52//53 65//53
f 65//53 66//53 53//53
f 41//54 53//54 66//54
f 66//54 54//54 41//54
f 67//55 54//55 66//55
f 54//56 67//56 68//56
f 68//56 55//56 54//56
f 55//57 68//57 69//57
f 69//57 56//57 55//57
f 56//58 69//58 70//58
f 70//58 57//58 56//58
f 57//59 70//59 71//59
f 71//59 58//59 57//59
f 58//60 71//60 72//60
f 72//60 59//60 58//60
f 59//61 72//61 73//61
f 73//61 60//61 59//61
f 60//62 73//62 74//62
f 74//62 61//62 60//62
f 61//63 74//63 75//63
f 75//63 62//63 61//63
f 62//64 75//64 76//64
f 76//64 63//64 62//64
f 63//65 76//65 77//65
f 77//65 64//65 63//65
f 64//66 77//66 78//66
f 78//66 65//66 64//66
f 65//67 78//67 79//67
f 79//67 66//67 65//67
f 66//55 79//55 67//55
f 68//68 67//68 80//68
f 80//69 81//69 68//69
f 69//70 68//70 81//70
f 81//71 82//71 69//71
f 70//72 69//72 82//72
f 82//72 83//72 70//72
f 71//73 70//73 83//73
f 83//74 84//74 71//74
f 72//75 71//75 84//75
f 84//75 85//75 72//75
f 73//76 72//76 85//76
f 85//76 86//76 73//76
f 74//77 73//77 86//77
f 86//77 87//77 74//77
f 75//78 74//78 87//78
f 87//78 88//78 75//78
f 76//79 75//79 88//79
f 88//79 89//79 76//79
f 77//80 76//80 89//80
f 89//81 90//81 77//81
f 78//82 77//82 90//82
f 90//83 91//83 78//83
f 79//84 78//84 91//84
f 91//85 92//85 79//85
f 67//86 79//86 92//86
f 92//87 80//87 67//87
f 81//88 80//88 93//88
f 93//88 94//88 81//88
f 82//89 81//89 94//89
f 94//89 95//89 82//89
f 83//90 82//90 95//90
f 95//90 96//90 83//90
f 84//91 83//91 96//91
f 96//91 97//91 84//91
f 85//92 84//92 97//92
f 97//92 98//92 85//92
f 86//93 85//93 98//93
f 98//93 99//93 86//93
f 87//94 86//94 99//94
f 99//94 100//94 87//94
f 88//95 87//95 100//95
f 100//95 101//95 88//95
f 89//96 88//96 101//96
f 101//96 102//96 89//96
f 90//97 89//97 102//97
f 102//97 103//97 90//97
f 91//98 90//98 103//98
f 103//98 104//98 91//98
f 92//99 91//99 104//99
f 104//99 105//99 92//99
f 80//100 92//100 105//100
f 105//100 93//100 80//100
f 94//101 93//101 106//101
f 106//101 107//101 94//101
f 95//102 94//102 107//102
f 107//102 108//102 95//102
f 96//103 95//103 108//103
f 108//103 109//103 96//103
f 97//104 96//104 109//104
f 109//104 110//104 97//104
f 98//105 97//105 110//105
f 110//105 111//105 98//105
f 99//106 98//106 111//106
f 111//106 112//106 99//106
f 100//107 99//107 112//107
f 112//107 113//107 100//107
f 101//108 100//108 113//108
f 113//108 114//108 101//108
f 102//109 101//109 114//109
f 114//109 115//109 102//109
f 103//110 102//110 115//110
f 115//110 116//110 103//110
f 104//111 103//111 116//111
f 116//111 117//111 104//111
f 105//112 104//112 117//112
f 117//112 118//112 105//112
f 93//113 105//113 118//113
f 118//113 106//113 93//113
f 113//114 112//114 119//114
f 119//115 120//115 113//115
f 113//116 120//116 121//116
f 114//117 113//117 121//117
f 121//118 122//118 114//118
f 114//119 122//119 123//119
f 115//120 114//120 123//120
f 123//121 124//121 115//121
f 115//122 124//122 125//122
f 116//123 115//123 125//123
f 126//124 127//124 117//124
f 117//125 116//125 126//125
f 116//126 128//126 126//126
f 125//127 128//127 116//127
f 117//128 127//128 129//128
f 129//129 130//129 117//129
f 118//130 117//130 130//130
f 130//131 131//131 118//131
f 106//132 118//132 131//132
f 131//133 132//133 106//133
f 106//134 132//134 133//134
f 107//135 106//135 133//135
f 133//136 134//136 107//136
f 107//137 134//137 135//137
f 108//138 107//138 135//138
f 135//139 136//139 108//139
f 108//140 136//140 137//140
f 109//141 108//141 137//141
f 137//142 138//142 109//142
f 109//143 138//143 139//143
f 110//144 109//144 139//144
f 139//145 140//145 110//145
f 110//146 140//146 141//146
f 111//147 110//147 141//147
f 141//148 142//148 111//148
f 111//149 142//149 143//149
f 112//150 111//150 143//150
f 143//151 144//151 112//151
f 112//152 144//152 119//152
f 145//153 146//153 130//153
f 130//154 129//154 145//154
f 145//155 129//155 127//155
f 147//156 145//156 127//156
f 127//157 126//157 147//157
f 147//158 126//158 128//158
f 148//159 147//159 128//159
f 128//160 125//160 148//160
f 148//161 125//161 124//161
f 149//162 148//162 124//162
f 124//163 123//163 149//163
f 149//164 123//164 122//164
f 150//165 149//165 122//165
f 122//166 121//166 150//166
f 150//167 121//167 120//167
f 151//168 150//168 120//168
f 120//169 119//169 151//169
f 151//170 119//170 144//170
f 152//171 151//171 144//171
f 144//172 143//172 152//172
f 152//173 143//173 142//173
f 153//174 152//174 142//174
f 142//175 141//175 153//175
f 153//176 141//176 140//176
f 154//177 153//177 140//177
f 140//178 139//178 154//178
f 154//179 139//179 138//179
f 155//180 154//180 138//180
f 138//181 137//181 155//181
f 155//182 137//182 136//182
f 156//183 155//183 136//183
f 136//184 135//184 156//184
f 156//185 135//185 134//185
f 157//186 156//186 134//186
f 134//187 133//187 157//187
f 157//188 133//188 132//188
f 146//189 157//189 132//189
f 132//190 131//190 146//190
f 146//191 131//191 130//191
f 158//192 157//192 146//192
f 157//193 158//193 159//193
f 159//193 156//193 157//193
f 156//194 159//194 160//194
f 160//194 155//194 156//194
f 155//195 160//195 161//195
f 161//195 154//195 155//195
f 154//196 161//196 162//196
f 162//196 153//196 154//196
f 153//197 162//197 163//197
f 163//197 152//197 153//197
f 152//198 163//198 164//198
f 164//198 151//198 152//198
f 151//199 164//199 165//199
f 165//199 150//199 151//199
f 150//200 165//200 166//200
f 166//200 149//200 150//200
f 149//201 166//201 167//201
f 167//201 148//201 149//201
f 148//202 167//202 168//202
f 168//202 147//202 148//202
f 147//203 168//203 169//203
f 169//203 145//203 147//203
f 145//204 169//204 170//204
f 170//204 146//204 145//204
f 146//192 170//192 158//192
f 170//205 169//205 171//205
f 160//205 159//205 171//205
f 159//205 158//205 171//205
f 158//205 170//205 171//205
f 163//205 162//205 171//205
f 162//205 161//205 171//205
f 161//205 160//205 171//205
f 166//205 165//205 171//205
f 165//205 164//205 171//205
f 164//205 163//205 171//205
f 171//205 169//205 168//205
f 168//205 167//205 171//205
f 167//205 166//205 171//205
